<svg xmlns="http://www.w3.org/2000/svg" xmlns:xlink="http://www.w3.org/1999/xlink" width="48" height="48" data-name="Слой 1" viewBox="0 0 48 48"><defs><radialGradient id="wLT1YNcV8Rh2J4CmSx~7mE" cx="11.865" cy="36.533" r="3.134" gradientTransform="rotate(-68.643 19.471 31.34) scale(1 .716)" xlink:href="#wLT1YNcV8Rh2J4CmSx~7ma"/><radialGradient id="wLT1YNcV8Rh2J4CmSx~7mf" cx="284.802" cy="5.393" r="7.814" data-name="Безымянный градиент 590" gradientTransform="rotate(-104.388 162.302 99.992) scale(1 .588)" gradientUnits="userSpaceOnUse"><stop offset=".652" stop-color="#c00005"/><stop offset=".93" stop-color="#ff3d0e"/></radialGradient><radialGradient id="wLT1YNcV8Rh2J4CmSx~7mb" cx="-13.859" cy="7.547" r="9.959" data-name="Безымянный градиент 581" gradientTransform="matrix(-.068 .998 .395 .027 36.315 21.172)" gradientUnits="userSpaceOnUse"><stop offset="0" stop-color="#ff7e00"/><stop offset="1" stop-color="#c90004"/></radialGradient><radialGradient id="wLT1YNcV8Rh2J4CmSx~7ma" cx="-5.513" cy="36.975" r="2.667" data-name="Безымянный градиент 546" gradientTransform="matrix(-.092 -.996 -.548 .051 51.66 29.614)" gradientUnits="userSpaceOnUse"><stop offset=".203" stop-color="#ff7e00"/><stop offset=".728" stop-color="#c90004"/><stop offset=".955" stop-color="#8b0000"/></radialGradient><radialGradient id="wLT1YNcV8Rh2J4CmSx~7mc" cx="-4.726" cy="32.547" r="2.984" data-name="Безымянный градиент 545" gradientTransform="matrix(-.659 -.753 -.423 .37 41.764 16.94)" gradientUnits="userSpaceOnUse"><stop offset=".132" stop-color="#ff7e00"/><stop offset=".728" stop-color="#c90004"/><stop offset=".955" stop-color="#8b0000"/></radialGradient><radialGradient id="wLT1YNcV8Rh2J4CmSx~7mj" cx="-10.135" cy="36.533" r="3.134" gradientTransform="matrix(-.364 -.931 -.667 .261 57.174 17.572)" xlink:href="#wLT1YNcV8Rh2J4CmSx~7ma"/><radialGradient id="wLT1YNcV8Rh2J4CmSx~7mk" cx="-9.031" cy="33.164" r="2.755" gradientTransform="matrix(-.74 -.672 -.238 .262 36.63 18.388)" xlink:href="#wLT1YNcV8Rh2J4CmSx~7mb"/><radialGradient id="wLT1YNcV8Rh2J4CmSx~7ml" cx="-6.227" cy="30.156" r="4.033" gradientTransform="matrix(-.891 -.454 -.2 .392 33.096 15.491)" xlink:href="#wLT1YNcV8Rh2J4CmSx~7mc"/><radialGradient id="wLT1YNcV8Rh2J4CmSx~7mm" cx="-14.091" cy="32.753" r="3.321" gradientTransform="matrix(-.385 -.923 -.584 .243 54.161 11.777)" xlink:href="#wLT1YNcV8Rh2J4CmSx~7ma"/><radialGradient id="wLT1YNcV8Rh2J4CmSx~7mn" cx="-12.511" cy="29.703" r="3.327" gradientTransform="matrix(-.956 -.293 -.119 .388 30.447 14.528)" xlink:href="#wLT1YNcV8Rh2J4CmSx~7mb"/><radialGradient id="wLT1YNcV8Rh2J4CmSx~7mo" cx="-7.862" cy="27.76" r="4.497" gradientTransform="matrix(-.993 -.116 -.038 .322 27.479 17.9)" xlink:href="#wLT1YNcV8Rh2J4CmSx~7mc"/><radialGradient id="wLT1YNcV8Rh2J4CmSx~7mp" cx="-15.376" cy="26.646" r="3.107" gradientTransform="matrix(-.891 -.454 -.284 .558 35.617 4.803)" xlink:href="#wLT1YNcV8Rh2J4CmSx~7ma"/><radialGradient id="wLT1YNcV8Rh2J4CmSx~7mq" cx="-12.399" cy="24.613" r="2.768" gradientTransform="matrix(-.994 .112 .049 .439 25.241 15.18)" xlink:href="#wLT1YNcV8Rh2J4CmSx~7mb"/><radialGradient id="wLT1YNcV8Rh2J4CmSx~7mr" cx="-7.499" cy="25.023" r="4.203" gradientTransform="matrix(-.972 .233 .082 .343 24.53 18.192)" xlink:href="#wLT1YNcV8Rh2J4CmSx~7mc"/><radialGradient id="wLT1YNcV8Rh2J4CmSx~7ms" cx="-10.453" cy="18.288" r="4.648" gradientTransform="matrix(-1 0 0 1 26.378 0)" xlink:href="#wLT1YNcV8Rh2J4CmSx~7mb"/><radialGradient id="wLT1YNcV8Rh2J4CmSx~7mt" cx="-8.429" cy="20.011" r="6.521" gradientTransform="matrix(-1 0 0 1 26.378 0)" xlink:href="#wLT1YNcV8Rh2J4CmSx~7mc"/><radialGradient id="wLT1YNcV8Rh2J4CmSx~7md" cx="32.047" cy="44.275" r="4.328" data-name="Безымянный градиент 529" gradientTransform="matrix(-1 0 0 1 55.355 0)" gradientUnits="userSpaceOnUse"><stop offset=".317" stop-color="#860c0f"/><stop offset=".561" stop-color="#b1190a"/><stop offset=".853" stop-color="#de2804"/><stop offset="1" stop-color="#f02d02"/></radialGradient><radialGradient id="wLT1YNcV8Rh2J4CmSx~7mu" cx="33.432" cy="42.964" r="3.259" xlink:href="#wLT1YNcV8Rh2J4CmSx~7md"/><radialGradient id="wLT1YNcV8Rh2J4CmSx~7mac" cx="346.122" cy="13.947" r="2.079" gradientTransform="matrix(-1 0 0 1 373.457 0)" xlink:href="#wLT1YNcV8Rh2J4CmSx~7mb"/><radialGradient id="wLT1YNcV8Rh2J4CmSx~7mi" cx="21.166" cy="14.347" r="2.083" data-name="Безымянный градиент 638" gradientUnits="userSpaceOnUse"><stop offset="0"/><stop offset=".091" stop-color="#070300"/><stop offset=".226" stop-color="#1b0c02"/><stop offset=".387" stop-color="#3b1b03"/><stop offset=".498" stop-color="#562705"/><stop offset=".524" stop-color="#4b2204"/><stop offset=".6" stop-color="#321703"/><stop offset=".679" stop-color="#1f0f02"/><stop offset=".761" stop-color="#150a01"/><stop offset=".852" stop-color="#110801"/></radialGradient><radialGradient id="wLT1YNcV8Rh2J4CmSx~7mw" cx="24.821" cy="44.275" r="4.328" xlink:href="#wLT1YNcV8Rh2J4CmSx~7md"/><radialGradient id="wLT1YNcV8Rh2J4CmSx~7mx" cx="26.206" cy="42.964" r="3.259" xlink:href="#wLT1YNcV8Rh2J4CmSx~7md"/><radialGradient id="wLT1YNcV8Rh2J4CmSx~7my" cx="24.135" cy="43.039" r="3.945" data-name="Безымянный градиент 601" gradientTransform="rotate(89.566 16.408 35.37) scale(1 .644)" gradientUnits="userSpaceOnUse"><stop offset="0" stop-color="#ff7e00"/><stop offset=".16" stop-color="#f97100"/><stop offset=".459" stop-color="#ea4e02"/><stop offset=".862" stop-color="#d21503"/><stop offset="1" stop-color="#c90004"/></radialGradient><radialGradient id="wLT1YNcV8Rh2J4CmSx~7mz" cx="262.802" cy="5.393" r="7.814" gradientTransform="matrix(.248 -.969 -.57 -.146 -51.931 260.74)" xlink:href="#wLT1YNcV8Rh2J4CmSx~7mf"/><radialGradient id="wLT1YNcV8Rh2J4CmSx~7mA" cx="11.004" cy="11.533" r="4.017" xlink:href="#wLT1YNcV8Rh2J4CmSx~7mg"/><radialGradient id="wLT1YNcV8Rh2J4CmSx~7mB" cx="8.141" cy="7.547" r="9.959" gradientTransform="rotate(86.121 5.703 5.269) scale(1 .396)" xlink:href="#wLT1YNcV8Rh2J4CmSx~7mb"/><radialGradient id="wLT1YNcV8Rh2J4CmSx~7mC" cx="16.487" cy="36.975" r="2.667" gradientTransform="matrix(.09192 -.99577 .54867 .05065 -5.304 51.521)" xlink:href="#wLT1YNcV8Rh2J4CmSx~7ma"/><radialGradient id="wLT1YNcV8Rh2J4CmSx~7mD" cx="17.274" cy="32.547" r="2.984" gradientTransform="matrix(.6585 -.75258 .42295 .37008 -7.873 33.496)" xlink:href="#wLT1YNcV8Rh2J4CmSx~7mc"/><radialGradient id="wLT1YNcV8Rh2J4CmSx~7mg" cx="-10.996" cy="11.533" r="4.017" data-name="Безымянный градиент 588" gradientTransform="matrix(-1 0 0 1 26.378 0)" gradientUnits="userSpaceOnUse"><stop offset=".475" stop-color="#6a171d"/><stop offset="1" stop-color="#5f221a" stop-opacity="0"/></radialGradient><radialGradient id="wLT1YNcV8Rh2J4CmSx~7mF" cx="12.969" cy="33.164" r="2.755" gradientTransform="matrix(.74 -.672 .238 .262 -4.538 33.179)" xlink:href="#wLT1YNcV8Rh2J4CmSx~7mb"/><radialGradient id="wLT1YNcV8Rh2J4CmSx~7mG" cx="15.773" cy="30.156" r="4.033" gradientTransform="rotate(-27.028 50.868 21.721) scale(1 .441)" xlink:href="#wLT1YNcV8Rh2J4CmSx~7mc"/><radialGradient id="wLT1YNcV8Rh2J4CmSx~7mH" cx="7.909" cy="32.753" r="3.321" gradientTransform="matrix(.38486 -.92298 .58332 .24323 -14.25 32.082)" xlink:href="#wLT1YNcV8Rh2J4CmSx~7ma"/><radialGradient id="wLT1YNcV8Rh2J4CmSx~7mI" cx="9.489" cy="29.703" r="3.327" gradientTransform="matrix(.95626 -.2925 .11846 .38729 -3.107 20.964)" xlink:href="#wLT1YNcV8Rh2J4CmSx~7mb"/><radialGradient id="wLT1YNcV8Rh2J4CmSx~7mJ" cx="14.138" cy="27.76" r="4.497" gradientTransform="rotate(-6.68 174.806 18.386) scale(1 .324)" xlink:href="#wLT1YNcV8Rh2J4CmSx~7mc"/><radialGradient id="wLT1YNcV8Rh2J4CmSx~7mK" cx="6.624" cy="26.646" r="3.107" gradientTransform="matrix(.89122 -.45357 .28394 .5579 -6.846 14.782)" xlink:href="#wLT1YNcV8Rh2J4CmSx~7ma"/><radialGradient id="wLT1YNcV8Rh2J4CmSx~7mL" cx="9.601" cy="24.613" r="2.768" gradientTransform="matrix(.99376 .11154 -.0493 .43924 1.274 12.726)" xlink:href="#wLT1YNcV8Rh2J4CmSx~7mb"/><radialGradient id="wLT1YNcV8Rh2J4CmSx~7mM" cx="14.501" cy="25.023" r="4.203" gradientTransform="matrix(.9725 .23292 -.08199 .34232 2.453 13.068)" xlink:href="#wLT1YNcV8Rh2J4CmSx~7mc"/><radialGradient id="wLT1YNcV8Rh2J4CmSx~7mN" cx="11.547" cy="18.288" r="4.648" xlink:href="#wLT1YNcV8Rh2J4CmSx~7mb"/><radialGradient id="wLT1YNcV8Rh2J4CmSx~7mO" cx="13.571" cy="20.011" r="6.521" xlink:href="#wLT1YNcV8Rh2J4CmSx~7mc"/><radialGradient id="wLT1YNcV8Rh2J4CmSx~7mP" cx="24.196" cy="20.178" r="12.408" gradientTransform="rotate(91.037 19.851 15.754) scale(1 .561)" xlink:href="#wLT1YNcV8Rh2J4CmSx~7mb"/><radialGradient id="wLT1YNcV8Rh2J4CmSx~7mQ" cx="353.111" cy="-25.425" r="3.387" gradientTransform="matrix(-.021 1 .475 .01 59.773 -347.05)" gradientUnits="userSpaceOnUse"><stop offset=".258" stop-color="#fff" stop-opacity=".3"/><stop offset="1" stop-color="#fff" stop-opacity="0"/></radialGradient><radialGradient id="wLT1YNcV8Rh2J4CmSx~7mR" cx="24.009" cy="39.649" r="3.698" gradientTransform="matrix(1 0 0 .576 0 16.8)" xlink:href="#wLT1YNcV8Rh2J4CmSx~7mb"/><radialGradient id="wLT1YNcV8Rh2J4CmSx~7mS" cx="24.075" cy="37.477" r="3.769" gradientTransform="matrix(1 -.02 .01 .496 -.374 19.389)" xlink:href="#wLT1YNcV8Rh2J4CmSx~7mb"/><radialGradient id="wLT1YNcV8Rh2J4CmSx~7mh" cx="24.173" cy="37.351" r="5.539" gradientTransform="translate(-.452 15.445) scale(1 .6)" gradientUnits="userSpaceOnUse"><stop offset=".651" stop-color="#af280a" stop-opacity="0"/><stop offset=".681" stop-color="#511c0a" stop-opacity=".149"/><stop offset=".737" stop-color="#31180a" stop-opacity=".2"/><stop offset="1" stop-color="#ae0003" stop-opacity="0"/></radialGradient><radialGradient id="wLT1YNcV8Rh2J4CmSx~7mT" cx="24.016" cy="35.571" r="3.293" gradientTransform="matrix(.99998 .00569 -.00298 .523 .106 16.839)" xlink:href="#wLT1YNcV8Rh2J4CmSx~7mb"/><radialGradient id="wLT1YNcV8Rh2J4CmSx~7mU" cx="24.016" cy="35.571" r="5.208" gradientTransform="matrix(.99998 .00569 -.00298 .523 .106 16.839)" xlink:href="#wLT1YNcV8Rh2J4CmSx~7mh"/><radialGradient id="wLT1YNcV8Rh2J4CmSx~7mV" cx="24.091" cy="33.101" r="4.141" gradientTransform="rotate(-.59 1408.785 25.996) scale(1 .569)" xlink:href="#wLT1YNcV8Rh2J4CmSx~7mb"/><radialGradient id="wLT1YNcV8Rh2J4CmSx~7mW" cx="24.131" cy="33.202" r="5.623" gradientTransform="matrix(1 .01 -.009 .928 .312 2.156)" xlink:href="#wLT1YNcV8Rh2J4CmSx~7mh"/><radialGradient id="wLT1YNcV8Rh2J4CmSx~7mX" cx="24.065" cy="39.5" r="6.307" gradientTransform="matrix(1 0 0 .663 0 13.299)" xlink:href="#wLT1YNcV8Rh2J4CmSx~7mh"/><radialGradient id="wLT1YNcV8Rh2J4CmSx~7mab" cx="21.015" cy="13.947" r="2.079" xlink:href="#wLT1YNcV8Rh2J4CmSx~7mb"/><radialGradient id="wLT1YNcV8Rh2J4CmSx~7mad" cx="346.273" cy="14.347" r="2.083" gradientTransform="matrix(-1 0 0 1 373.457 0)" xlink:href="#wLT1YNcV8Rh2J4CmSx~7mi"/><linearGradient id="wLT1YNcV8Rh2J4CmSx~7mZ" x1="20.864" x2="2.732" y1="3.317" y2="51.426" xlink:href="#wLT1YNcV8Rh2J4CmSx~7me"/><linearGradient id="wLT1YNcV8Rh2J4CmSx~7maa" x1="339.298" x2="321.166" y1="3.295" y2="51.404" gradientTransform="matrix(-1 0 0 1 367.001 0)" xlink:href="#wLT1YNcV8Rh2J4CmSx~7me"/><linearGradient id="wLT1YNcV8Rh2J4CmSx~7mY" x1="22.993" x2="25.245" y1="14.487" y2="14.487" data-name="Безымянный градиент 655" gradientUnits="userSpaceOnUse"><stop offset="0" stop-color="#f24a00"/><stop offset=".095" stop-color="#f34e00"/><stop offset=".189" stop-color="#f65a00"/><stop offset=".283" stop-color="#fb6e00"/><stop offset=".341" stop-color="#ff7e00"/><stop offset=".398" stop-color="#fe7c00"/><stop offset=".428" stop-color="#fb7400"/><stop offset=".453" stop-color="#f56601"/><stop offset=".474" stop-color="#ec5301"/><stop offset=".493" stop-color="#e23a02"/><stop offset=".51" stop-color="#d51c03"/><stop offset=".522" stop-color="#c90004"/><stop offset="1" stop-color="#fd5b00"/></linearGradient><linearGradient id="wLT1YNcV8Rh2J4CmSx~7mv" x1="346.389" x2="344.667" y1=".727" y2="12.366" gradientTransform="matrix(-1 .02 .02 1 368.015 -3.782)" xlink:href="#wLT1YNcV8Rh2J4CmSx~7me"/><linearGradient id="wLT1YNcV8Rh2J4CmSx~7me" x1="27.014" x2="25.292" y1="17.877" y2="29.516" data-name="Безымянный градиент 678" gradientTransform="rotate(4.965 185.226 13.01)" gradientUnits="userSpaceOnUse"><stop offset="0" stop-color="#590000"/><stop offset=".157" stop-color="#5d0300"/><stop offset=".312" stop-color="#690c00"/><stop offset=".467" stop-color="#7d1b00"/><stop offset=".622" stop-color="#993000"/><stop offset=".777" stop-color="#bd4c00"/><stop offset=".93" stop-color="#e86d00"/><stop offset="1" stop-color="#ff7e00"/></linearGradient></defs><path fill="url(#wLT1YNcV8Rh2J4CmSx~7mf)" d="M36.218,1.414a1.157,1.157,0,0,0-1.109.03,2.066,2.066,0,0,0-.781.834,6.752,6.752,0,0,0-.612,3.166,12.971,12.971,0,0,0,.16,2.875,4.766,4.766,0,0,0,1.29,2.531.514.514,0,0,0,.193.131.548.548,0,0,0,.311-.032,4.652,4.652,0,0,0,1.5-.658,1.58,1.58,0,0,0,.681-1.41c-.818-.9-1.69-1.95-1.592-3.162a3.592,3.592,0,0,0,.037-.516,1.958,1.958,0,0,0-.143-.55A6.275,6.275,0,0,1,35.7,3,1.959,1.959,0,0,1,36.218,1.414Z"/><path fill="url(#wLT1YNcV8Rh2J4CmSx~7mg)" d="M36.218,1.414a1.157,1.157,0,0,0-1.109.03,2.066,2.066,0,0,0-.781.834,6.752,6.752,0,0,0-.612,3.166,12.971,12.971,0,0,0,.16,2.875,4.766,4.766,0,0,0,1.29,2.531.514.514,0,0,0,.193.131.548.548,0,0,0,.311-.032,4.652,4.652,0,0,0,1.5-.658,1.58,1.58,0,0,0,.681-1.41c-.818-.9-1.69-1.95-1.592-3.162a3.592,3.592,0,0,0,.037-.516,1.958,1.958,0,0,0-.143-.55A6.275,6.275,0,0,1,35.7,3,1.959,1.959,0,0,1,36.218,1.414Z"/><path fill="url(#wLT1YNcV8Rh2J4CmSx~7mb)" d="M41.252,3.111a12.268,12.268,0,0,0-1.8-1.411,2.526,2.526,0,0,0-2.193-.637,2.09,2.09,0,0,1,.73,2.288,2.932,2.932,0,0,0-.206.662,1.735,1.735,0,0,0,.059.506l.511,2.329a3.017,3.017,0,0,1,.1.766A2.03,2.03,0,0,1,37.081,9.3a1.681,1.681,0,0,0-.634.32,4.018,4.018,0,0,0-.284.4c-.442.573-1.321.464-2.025.3a14.229,14.229,0,0,0,.02,3.011,7.17,7.17,0,0,0,.972,3.093,4.564,4.564,0,0,0,2.008,1.616c1.119.507,1.525,2.413,3.453.661a3.083,3.083,0,0,0,.836-1.314q.468-1.406.884-2.827a19.953,19.953,0,0,0,1.027-5.937A8.032,8.032,0,0,0,41.252,3.111Z"/><path fill="url(#wLT1YNcV8Rh2J4CmSx~7ma)" d="M30.639,34.5a9.544,9.544,0,0,0,.017,2.394.373.373,0,0,1,0,.1V37c.348.343.78,1.5,1.045,1.028l.138-.887a1.308,1.308,0,0,0-.045-.413,10.226,10.226,0,0,1-.3-2,.058.058,0,0,1-.007-.04,1.641,1.641,0,0,1,.235-1.248A1.39,1.39,0,0,1,30.6,33.7a1.057,1.057,0,0,1,.065.425C30.654,34.248,30.636,34.377,30.639,34.5Z"/><path fill="url(#wLT1YNcV8Rh2J4CmSx~7mc)" d="M27.454,31.673a.564.564,0,0,1,.071-.025c.274-.054.512.311.783.467.175.1.338.211.513.3a4.141,4.141,0,0,0,.956.428,1.434,1.434,0,0,1,.819.86,1.39,1.39,0,0,0,1.128-.263c.183-.219.038-.478-.109-.687-.315-.43-.757-.746-1.05-1.2-.109-.176-.367-.222-.584-.275a3.532,3.532,0,0,1-.551-.163,7.162,7.162,0,0,1-1.179-.541.5.5,0,0,1-.154-.11A6.261,6.261,0,0,1,27.454,31.673Z"/><path fill="url(#wLT1YNcV8Rh2J4CmSx~7mj)" d="M34.823,34.518a2.971,2.971,0,0,0-.091,1.026,1.418,1.418,0,0,0,.461,1c.161.14.338.361.564.264.238-.116.072-.366.054-.557a5.073,5.073,0,0,1,.086-1.778,1.311,1.311,0,0,0-.03-.823,2.019,2.019,0,0,1-1.085.386A.587.587,0,0,1,34.823,34.518Z"/><path fill="url(#wLT1YNcV8Rh2J4CmSx~7mk)" d="M32.607,31.231a1.752,1.752,0,0,1,.564.615.73.73,0,0,0,.081.145,7.114,7.114,0,0,0,1.409,1.9,1.566,1.566,0,0,1,.121.147,2.019,2.019,0,0,0,1.085-.386,1.608,1.608,0,0,0-.473-.629,10.014,10.014,0,0,1-1.331-1.361c-.112-.137-.224-.274-.325-.42a.673.673,0,0,1-.2-.553A1.62,1.62,0,0,1,32.607,31.231Z"/><path fill="url(#wLT1YNcV8Rh2J4CmSx~7ml)" d="M28.3,29.942c.059.023.127.057.186.081a9.1,9.1,0,0,0,2,.6,4.433,4.433,0,0,0,1.2.042.349.349,0,0,1,.227.044,6.121,6.121,0,0,0,.7.522,1.62,1.62,0,0,0,.934-.545c-.009-.02,0-.03,0-.05a.384.384,0,0,0-.125-.428c-.733-.464-1.384-1.134-2.359-1.062-.091,0-.171.01-.252.015a7.7,7.7,0,0,1-2.079-.225c-.049-.013-.089-.025-.128-.038A8.681,8.681,0,0,1,28.3,29.942Z"/><path fill="url(#wLT1YNcV8Rh2J4CmSx~7mm)" d="M38.225,30.727a.608.608,0,0,1,.133.448,2.29,2.29,0,0,0,.21,1,1.428,1.428,0,0,0,.659.711c.174.09.386.233.564.1.2-.148-.009-.351-.059-.514a7.153,7.153,0,0,1-.332-1.652,1.9,1.9,0,0,0-.182-.8A1.422,1.422,0,0,1,38.225,30.727Z"/><path fill="url(#wLT1YNcV8Rh2J4CmSx~7mn)" d="M34.677,29.112c.446-.093.727.224,1.056.424a.516.516,0,0,0,.106.056,7.986,7.986,0,0,0,2.056.955.678.678,0,0,1,.33.18,1.422,1.422,0,0,0,.993-.7,1.276,1.276,0,0,0-.86-.512A14.848,14.848,0,0,1,36.2,28.8a3.793,3.793,0,0,1-.409-.185.772.772,0,0,1-.483-.47l-.009-.01a.2.2,0,0,1,.013.111A1.077,1.077,0,0,1,34.677,29.112Z"/><path fill="url(#wLT1YNcV8Rh2J4CmSx~7mo)" d="M28.729,28.265a1.832,1.832,0,0,1,.189.031,7.332,7.332,0,0,0,3.074.325H32a4.054,4.054,0,0,0,.487-.1,1.569,1.569,0,0,1,1.737.425c.094.1.268.206.37.182a.226.226,0,0,1,.071-.015h.01a1.077,1.077,0,0,0,.632-.863.2.2,0,0,0-.013-.111c-.078-.205-.282-.307-.465-.429a13.9,13.9,0,0,0-1.84-.721c-.029-.011-.048-.023-.078-.034a1.074,1.074,0,0,0-.776.093,8.277,8.277,0,0,1-3.064.327.5.5,0,0,1-.237-.054C28.816,27.649,28.778,27.958,28.729,28.265Z"/><path fill="url(#wLT1YNcV8Rh2J4CmSx~7mp)" d="M38.855,25.728a.525.525,0,0,1,.147.219,2.145,2.145,0,0,0,1.13,1.2,1.259,1.259,0,0,0,.787.067c.233-.056.35-.159.133-.382a7.529,7.529,0,0,1-1.435-1.959c0-.01-.019-.021-.019-.021A1.121,1.121,0,0,1,38.855,25.728Z"/><path fill="url(#wLT1YNcV8Rh2J4CmSx~7mq)" d="M35.369,25.238a.73.73,0,0,1-.11.344.493.493,0,0,1,.412-.025,6.62,6.62,0,0,0,1.253.135h.01a9.382,9.382,0,0,0,1.5-.061.5.5,0,0,1,.425.1,1.121,1.121,0,0,0,.743-.877,1.2,1.2,0,0,0-1.3-.348,8.7,8.7,0,0,1-2.159.271l-.03,0a2.056,2.056,0,0,1-.989-.209A.962.962,0,0,1,35.369,25.238Z"/><path fill="url(#wLT1YNcV8Rh2J4CmSx~7mr)" d="M28.812,25.386a7.327,7.327,0,0,1,.065,1.076.581.581,0,0,1,.3.007,8.166,8.166,0,0,0,3.31-.082,2.242,2.242,0,0,0,.529-.148.46.46,0,0,0,.158-.121,1.279,1.279,0,0,1,1.21-.318,1.007,1.007,0,0,0,.843-.19l.032-.028a.73.73,0,0,0,.11-.344.962.962,0,0,0-.25-.675c-.03,0-.048-.023-.078-.035-.5-.281-1.037.1-1.549.117a5.724,5.724,0,0,0-1.592.335,7.631,7.631,0,0,1-2.173.511C29.2,25.5,28.944,25.524,28.812,25.386Z"/><path fill="url(#wLT1YNcV8Rh2J4CmSx~7ms)" d="M34.858,22.877a14.73,14.73,0,0,0,3.3-1.323,1.347,1.347,0,0,0,.658-.6,2.087,2.087,0,0,0,.048-.817,6.4,6.4,0,0,0,.039-1.467,1.891,1.891,0,0,0-.916-1.094c-.418-.251-.884-.412-1.317-.638a1.419,1.419,0,0,0-.715-.242c-.533.033-.767.667-.958,1.167a5.108,5.108,0,0,1-2.036,2.482c-.137.086-.292.183-.327.342a.568.568,0,0,0,.1.382A6.657,6.657,0,0,0,34.006,22.7a.9.9,0,0,0,.3.209A.948.948,0,0,0,34.858,22.877Z"/><path fill="url(#wLT1YNcV8Rh2J4CmSx~7mt)" d="M28.135,22.306a1.906,1.906,0,0,1,.29-.424,2.031,2.031,0,0,1,.613-.381l2.423-1.129a1.3,1.3,0,0,1,1.233.02c.88.555,1.015,1.677,1.541,2.4a.5.5,0,0,1-.313.793c-.57.091-1.165.1-1.738.184-1.745.264-3.393,1.294-5.146,1.093A14.267,14.267,0,0,1,28.135,22.306Z"/><path fill="url(#wLT1YNcV8Rh2J4CmSx~7md)" d="M21.886,41.74a10.52,10.52,0,0,0-.1,2.405,5.11,5.11,0,0,0,.914,2.526c.211.281.138.419-.144.57a1.763,1.763,0,0,1-2.7-1.247A4.609,4.609,0,0,1,21.886,41.74Z"/><path fill="url(#wLT1YNcV8Rh2J4CmSx~7mu)" d="M21.543,41.827c-.019.237-.215.358-.343.52a5.309,5.309,0,0,0-1.361,3.761c.026.337-.095.348-.367.267a2.19,2.19,0,0,1-1.064-3.22A3.877,3.877,0,0,1,21.543,41.827Z"/><path fill="url(#wLT1YNcV8Rh2J4CmSx~7me)" d="M23.816,14.724a5.691,5.691,0,0,1,1.13-2.436c.306-.368.626-.608.861-.892a7.964,7.964,0,0,0,.679-.959,2.482,2.482,0,0,0,.327-2.169,3.252,3.252,0,0,0-1.659-1.642.03.03,0,0,1-.015-.04.033.033,0,0,1,.038-.016,3.448,3.448,0,0,1,1.937,1.565,2.937,2.937,0,0,1-.1,2.573,8.4,8.4,0,0,1-.628,1.13c-.254.378-.567.678-.752.971a4.725,4.725,0,0,0-.7,2.092.568.568,0,1,1-1.132-.105c0-.022,0-.043.009-.064Z"/><path fill="url(#wLT1YNcV8Rh2J4CmSx~7mv)" d="M24.377,14.76a5.7,5.7,0,0,0-.967-2.506c-.281-.388-.584-.648-.8-.948a7.706,7.706,0,0,1-.614-1,2.482,2.482,0,0,1-.184-2.186,3.257,3.257,0,0,1,1.765-1.528.031.031,0,0,0,.017-.039.03.03,0,0,0-.036-.018,3.441,3.441,0,0,0-2.037,1.433,2.94,2.94,0,0,0-.075,2.573A8.468,8.468,0,0,0,22,11.709c.229.394.521.714.686,1.019a4.713,4.713,0,0,1,.561,2.134.569.569,0,0,0,1.137-.03c0-.022,0-.043,0-.064Z"/><path fill="url(#wLT1YNcV8Rh2J4CmSx~7mw)" d="M26.244,41.74a10.52,10.52,0,0,1,.1,2.405,5.11,5.11,0,0,1-.914,2.526c-.211.281-.138.419.144.57a1.763,1.763,0,0,0,2.7-1.247A4.609,4.609,0,0,0,26.244,41.74Z"/><path fill="url(#wLT1YNcV8Rh2J4CmSx~7mx)" d="M26.587,41.827c.018.237.215.358.343.52a5.309,5.309,0,0,1,1.361,3.761c-.026.337.095.348.367.267a2.19,2.19,0,0,0,1.064-3.22A3.879,3.879,0,0,0,26.587,41.827Z"/><path fill="url(#wLT1YNcV8Rh2J4CmSx~7my)" d="M26.255,45.028a5.826,5.826,0,0,1-.681,1.43c-.493.753-.9,1.377-1.471,1.4-.7.022-1.254-.882-1.609-1.463a5.476,5.476,0,0,1-.6-1.457,5.781,5.781,0,0,1-.066-2.778.337.337,0,0,1,.142-.219.39.39,0,0,1,.3-.01,6.7,6.7,0,0,0,3.523.008.415.415,0,0,1,.315.01.437.437,0,0,1,.179.293A5.8,5.8,0,0,1,26.255,45.028Z"/><path fill="url(#wLT1YNcV8Rh2J4CmSx~7mz)" d="M12.16,1.414a1.157,1.157,0,0,1,1.109.03,2.066,2.066,0,0,1,.781.834,6.752,6.752,0,0,1,.612,3.166,12.971,12.971,0,0,1-.16,2.875,4.766,4.766,0,0,1-1.29,2.531.514.514,0,0,1-.193.131.548.548,0,0,1-.311-.032,4.652,4.652,0,0,1-1.5-.658,1.58,1.58,0,0,1-.681-1.41c.818-.9,1.69-1.95,1.592-3.162a3.592,3.592,0,0,1-.037-.516,1.99,1.99,0,0,1,.142-.55A6.278,6.278,0,0,0,12.681,3,1.959,1.959,0,0,0,12.16,1.414Z"/><path fill="url(#wLT1YNcV8Rh2J4CmSx~7mA)" d="M12.16,1.414a1.157,1.157,0,0,1,1.109.03,2.066,2.066,0,0,1,.781.834,6.752,6.752,0,0,1,.612,3.166,12.971,12.971,0,0,1-.16,2.875,4.766,4.766,0,0,1-1.29,2.531.514.514,0,0,1-.193.131.548.548,0,0,1-.311-.032,4.652,4.652,0,0,1-1.5-.658,1.58,1.58,0,0,1-.681-1.41c.818-.9,1.69-1.95,1.592-3.162a3.592,3.592,0,0,1-.037-.516,1.99,1.99,0,0,1,.142-.55A6.278,6.278,0,0,0,12.681,3,1.959,1.959,0,0,0,12.16,1.414Z"/><path fill="url(#wLT1YNcV8Rh2J4CmSx~7mB)" d="M7.126,3.111A12.268,12.268,0,0,1,8.927,1.7a2.526,2.526,0,0,1,2.193-.637,2.09,2.09,0,0,0-.73,2.288,2.932,2.932,0,0,1,.206.662,1.735,1.735,0,0,1-.059.506l-.511,2.329a3.017,3.017,0,0,0-.1.766A2.03,2.03,0,0,0,11.3,9.3a1.681,1.681,0,0,1,.634.32,4.018,4.018,0,0,1,.284.4c.442.573,1.321.464,2.025.3a14.229,14.229,0,0,1-.02,3.011,7.17,7.17,0,0,1-.972,3.093,4.564,4.564,0,0,1-2.008,1.616c-1.119.507-1.525,2.413-3.453.661A3.083,3.083,0,0,1,6.951,17.4q-.468-1.406-.884-2.827A19.953,19.953,0,0,1,5.04,8.632,8.032,8.032,0,0,1,7.126,3.111Z"/><path fill="url(#wLT1YNcV8Rh2J4CmSx~7mC)" d="M17.739,34.5a9.544,9.544,0,0,1-.017,2.394.373.373,0,0,0,0,.1V37c-.348.343-.78,1.5-1.045,1.028l-.138-.887a1.308,1.308,0,0,1,.045-.413,10.226,10.226,0,0,0,.3-2,.058.058,0,0,0,.007-.04,1.641,1.641,0,0,0-.235-1.248,1.39,1.39,0,0,0,1.128.263,1.057,1.057,0,0,0-.065.425C17.724,34.248,17.742,34.377,17.739,34.5Z"/><path fill="url(#wLT1YNcV8Rh2J4CmSx~7mD)" d="M20.924,31.673a.564.564,0,0,0-.071-.025c-.274-.054-.512.311-.783.467-.175.1-.338.211-.513.3a4.141,4.141,0,0,1-.956.428,1.434,1.434,0,0,0-.819.86,1.39,1.39,0,0,1-1.128-.263c-.183-.219-.038-.478.109-.687.315-.43.757-.746,1.05-1.2.109-.176.367-.222.584-.275a3.532,3.532,0,0,0,.551-.163,7.2,7.2,0,0,0,1.179-.541.5.5,0,0,0,.154-.11A6.261,6.261,0,0,0,20.924,31.673Z"/><path fill="url(#wLT1YNcV8Rh2J4CmSx~7mE)" d="M13.555,34.518a2.971,2.971,0,0,1,.091,1.026,1.418,1.418,0,0,1-.461,1c-.161.14-.339.361-.565.264-.237-.116-.072-.366-.053-.557a5.073,5.073,0,0,0-.086-1.778,1.311,1.311,0,0,1,.03-.823,2.016,2.016,0,0,0,1.085.386A.587.587,0,0,0,13.555,34.518Z"/><path fill="url(#wLT1YNcV8Rh2J4CmSx~7mF)" d="M15.771,31.231a1.743,1.743,0,0,0-.564.615.73.73,0,0,1-.081.145,7.114,7.114,0,0,1-1.409,1.9,1.566,1.566,0,0,0-.121.147,2.016,2.016,0,0,1-1.085-.386,1.608,1.608,0,0,1,.473-.629,10.014,10.014,0,0,0,1.331-1.361c.112-.137.224-.274.325-.42a.673.673,0,0,0,.2-.553A1.62,1.62,0,0,0,15.771,31.231Z"/><path fill="url(#wLT1YNcV8Rh2J4CmSx~7mG)" d="M20.08,29.942c-.059.023-.127.057-.186.081a9.091,9.091,0,0,1-2,.6,4.425,4.425,0,0,1-1.2.042.349.349,0,0,0-.227.044,6.21,6.21,0,0,1-.7.522,1.62,1.62,0,0,1-.934-.545c.009-.02,0-.03,0-.05a.384.384,0,0,1,.125-.428c.733-.464,1.384-1.134,2.359-1.062.091,0,.171.01.251.015a7.707,7.707,0,0,0,2.08-.225c.049-.013.088-.025.128-.038A8.5,8.5,0,0,0,20.08,29.942Z"/><path fill="url(#wLT1YNcV8Rh2J4CmSx~7mH)" d="M10.153,30.727a.6.6,0,0,0-.133.448,2.29,2.29,0,0,1-.21,1,1.428,1.428,0,0,1-.659.711c-.175.09-.386.233-.564.1-.2-.148.009-.351.059-.514a7.153,7.153,0,0,0,.332-1.652,1.9,1.9,0,0,1,.182-.8A1.422,1.422,0,0,0,10.153,30.727Z"/><path fill="url(#wLT1YNcV8Rh2J4CmSx~7mI)" d="M13.7,29.112c-.446-.093-.727.224-1.056.424a.516.516,0,0,1-.106.056,7.986,7.986,0,0,1-2.056.955.678.678,0,0,0-.33.18,1.422,1.422,0,0,1-.993-.7,1.273,1.273,0,0,1,.86-.512,14.848,14.848,0,0,0,2.161-.71,3.793,3.793,0,0,0,.409-.185.774.774,0,0,0,.483-.47l.009-.01a.194.194,0,0,0-.013.111A1.077,1.077,0,0,0,13.7,29.112Z"/><path fill="url(#wLT1YNcV8Rh2J4CmSx~7mJ)" d="M19.649,28.265a1.832,1.832,0,0,0-.189.031,7.332,7.332,0,0,1-3.074.325h-.01a4.054,4.054,0,0,1-.487-.1,1.569,1.569,0,0,0-1.737.425c-.094.1-.268.206-.37.182a.226.226,0,0,0-.071-.015H13.7a1.077,1.077,0,0,1-.632-.863.194.194,0,0,1,.013-.111c.078-.205.282-.307.465-.429a13.9,13.9,0,0,1,1.84-.721c.029-.011.048-.023.078-.034a1.074,1.074,0,0,1,.776.093,8.277,8.277,0,0,0,3.064.327.5.5,0,0,0,.237-.054C19.562,27.649,19.6,27.958,19.649,28.265Z"/><path fill="url(#wLT1YNcV8Rh2J4CmSx~7mK)" d="M9.523,25.728a.525.525,0,0,0-.147.219,2.145,2.145,0,0,1-1.13,1.2,1.259,1.259,0,0,1-.787.067c-.233-.056-.35-.159-.133-.382a7.529,7.529,0,0,0,1.435-1.959c0-.01.019-.021.019-.021A1.12,1.12,0,0,0,9.523,25.728Z"/><path fill="url(#wLT1YNcV8Rh2J4CmSx~7mL)" d="M13.009,25.238a.73.73,0,0,0,.11.344.493.493,0,0,0-.412-.025,6.62,6.62,0,0,1-1.253.135h-.01a9.382,9.382,0,0,1-1.5-.061.5.5,0,0,0-.425.1,1.12,1.12,0,0,1-.743-.877,1.2,1.2,0,0,1,1.3-.348,8.7,8.7,0,0,0,2.159.271l.03,0a2.056,2.056,0,0,0,.989-.209A.962.962,0,0,0,13.009,25.238Z"/><path fill="url(#wLT1YNcV8Rh2J4CmSx~7mM)" d="M19.566,25.386a7.327,7.327,0,0,0-.065,1.076.581.581,0,0,0-.3.007,8.166,8.166,0,0,1-3.31-.082,2.242,2.242,0,0,1-.529-.148.46.46,0,0,1-.158-.121,1.279,1.279,0,0,0-1.21-.318,1.007,1.007,0,0,1-.843-.19l-.032-.028a.73.73,0,0,1-.11-.344.962.962,0,0,1,.25-.675c.029,0,.048-.023.078-.035.5-.281,1.037.1,1.549.117a5.724,5.724,0,0,1,1.592.335,7.615,7.615,0,0,0,2.173.511C19.183,25.5,19.434,25.524,19.566,25.386Z"/><path fill="url(#wLT1YNcV8Rh2J4CmSx~7mN)" d="M13.52,22.877a14.73,14.73,0,0,1-3.295-1.323,1.343,1.343,0,0,1-.658-.6,2.069,2.069,0,0,1-.048-.817,6.4,6.4,0,0,1-.039-1.467,1.891,1.891,0,0,1,.916-1.094c.418-.251.884-.412,1.317-.638a1.419,1.419,0,0,1,.714-.242c.534.033.768.667.959,1.167a5.111,5.111,0,0,0,2.035,2.482c.138.086.293.183.328.342a.568.568,0,0,1-.1.382A6.657,6.657,0,0,1,14.372,22.7a.9.9,0,0,1-.3.209A.948.948,0,0,1,13.52,22.877Z"/><path fill="url(#wLT1YNcV8Rh2J4CmSx~7mO)" d="M20.243,22.306a1.906,1.906,0,0,0-.29-.424,2.031,2.031,0,0,0-.613-.381l-2.423-1.129a1.3,1.3,0,0,0-1.233.02c-.881.555-1.015,1.677-1.541,2.4a.5.5,0,0,0,.313.793c.57.091,1.165.1,1.738.184,1.745.264,3.392,1.294,5.146,1.093A14.267,14.267,0,0,0,20.243,22.306Z"/><path fill="url(#wLT1YNcV8Rh2J4CmSx~7mP)" d="M29.58,24.283c0-.005-.006-.013-.01-.019,0-.024,0-.048,0-.071a2.934,2.934,0,0,1-.147-.772A20.846,20.846,0,0,0,27.286,16.7c-.09-.181-.158-.408-.374-.443s-.307-.124-.329-.227a.228.228,0,0,1,0-.193,1.4,1.4,0,0,1,.056-.158l-.011-.011h0l-.011-.011c.011,0,.011-.012.011-.012-.113-.106-.227-.193-.34-.286-.039-.033-.078-.068-.118-.1s-.078-.071-.121-.1h-.011c-.014-.01-.03-.017-.045-.027-.076-.055-.15-.114-.228-.166s-.182-.092-.274-.137c-.019-.01-.036-.024-.055-.033s-.025-.008-.038-.013a3.4,3.4,0,0,0-.6-.214,2.975,2.975,0,0,0-1.362,0,3.386,3.386,0,0,0-.6.214c-.013.005-.026.007-.039.013s-.036.023-.054.033c-.092.045-.186.085-.275.137s-.185.127-.277.193h-.007l-.023.021a4.88,4.88,0,0,0-.578.49s0,.012.011.012l-.011.011a.422.422,0,0,1,.068.147.228.228,0,0,1,0,.193c-.023.1-.125.182-.329.227s-.284.262-.375.443a20.844,20.844,0,0,0-2.134,6.721,2.966,2.966,0,0,1-.148.772c0,.023,0,.047,0,.071a.111.111,0,0,1-.009.019c-.011.25-.011.489-.011.738,0,.2,0,.4.011.579a.255.255,0,0,0,.011.1.406.406,0,0,1,.012.125.067.067,0,0,1-.012.046v.045a.049.049,0,0,1,0,.057V26.1a.049.049,0,0,1,0,.057c.011.176.036.344.051.518.011.135.026.267.039.4.042.388.094.765.156,1.135.03.184.059.367.094.546q.126.634.292,1.226c.018.064.031.133.05.2.132.455.278.893.442,1.3.046.1.08.2.125.295l.01.022a2.575,2.575,0,0,0,.172.466.813.813,0,0,0,.215.306.239.239,0,0,0,.159.023.217.217,0,0,0,.137-.023,1.961,1.961,0,0,1,.444-.106l.055-.007a1.826,1.826,0,0,1,.208-.008,2.1,2.1,0,0,1,.3.007l.073.012a3.2,3.2,0,0,1,.932.318,3.13,3.13,0,0,0,3,0,3.186,3.186,0,0,1,.932-.318c.024,0,.048-.009.073-.012a2.1,2.1,0,0,1,.3-.007,1.826,1.826,0,0,1,.208.008l.055.007a1.961,1.961,0,0,1,.444.106.214.214,0,0,0,.136.023.238.238,0,0,0,.159-.023.8.8,0,0,0,.216-.306,2.5,2.5,0,0,0,.171-.466l.011-.022c.045-.091.079-.193.124-.295.165-.41.31-.848.443-1.3.018-.063.032-.132.05-.2.109-.395.208-.8.291-1.226.036-.179.064-.362.095-.546.062-.37.113-.747.155-1.135.014-.133.028-.265.039-.4.016-.174.04-.342.051-.518a.053.053,0,0,1,0-.057v-.125a.052.052,0,0,1,0-.057v-.045a.24.24,0,0,0,.012-.1V25.6c.011-.181.011-.374.011-.579C29.591,24.772,29.591,24.533,29.58,24.283Z"/><ellipse cx="40.16" cy="6.14" fill="url(#wLT1YNcV8Rh2J4CmSx~7mQ)" opacity=".8" rx="2.022" ry="3.474" transform="rotate(-9.578 40.161 6.141)"/><path fill="url(#wLT1YNcV8Rh2J4CmSx~7mR)" d="M24.009,42.64a5.5,5.5,0,0,1-2.76-.674,1.771,1.771,0,0,1-.945-1.721c.023-.425.067-.85.122-1.272.037-.284.128-.4.445-.193a6.119,6.119,0,0,0,5.712.421,1.585,1.585,0,0,0,.544-.328c.355-.332.5-.215.542.21.018.177.044.353.061.53A2.267,2.267,0,0,1,25.7,42.447,5.943,5.943,0,0,1,24.009,42.64Z"/><path fill="url(#wLT1YNcV8Rh2J4CmSx~7mS)" d="M24.224,39.9a5.759,5.759,0,0,1-2.712-.55,2.04,2.04,0,0,1-.971-2.64c.1-.264.23-.128.365-.043a6.224,6.224,0,0,0,5.626.436,2.664,2.664,0,0,0,.731-.433c.206-.157.287-.1.334.156.3,1.627-.205,2.441-1.817,2.862A5.3,5.3,0,0,1,24.224,39.9Z"/><path fill="url(#wLT1YNcV8Rh2J4CmSx~7mh)" d="M24.224,39.9a5.759,5.759,0,0,1-2.712-.55,2.04,2.04,0,0,1-.971-2.64c.1-.264.23-.128.365-.043a6.224,6.224,0,0,0,5.626.436,2.664,2.664,0,0,0,.731-.433c.206-.157.287-.1.334.156.3,1.627-.205,2.441-1.817,2.862A5.3,5.3,0,0,1,24.224,39.9Z"/><path fill="url(#wLT1YNcV8Rh2J4CmSx~7mT)" d="M23.961,37.641a4.8,4.8,0,0,1-2.847-.794,1.644,1.644,0,0,1-.632-.833c-.22-.664-.034-.934.632-1.038a22.319,22.319,0,0,1,6.306.116c.231.029.231.17.248.331a1.77,1.77,0,0,1-1.228,1.8A5.409,5.409,0,0,1,23.961,37.641Z"/><path fill="url(#wLT1YNcV8Rh2J4CmSx~7mU)" d="M23.961,37.641a4.8,4.8,0,0,1-2.847-.794,1.644,1.644,0,0,1-.632-.833c-.22-.664-.034-.934.632-1.038a22.319,22.319,0,0,1,6.306.116c.231.029.231.17.248.331a1.77,1.77,0,0,1-1.228,1.8A5.409,5.409,0,0,1,23.961,37.641Z"/><path fill="url(#wLT1YNcV8Rh2J4CmSx~7mV)" d="M20.124,33.69c-.18-1.017.982-1.595,2.036-1.278a5.332,5.332,0,0,1,.833.352,2.4,2.4,0,0,0,2.253-.008,2.943,2.943,0,0,1,1.626-.421,1.282,1.282,0,0,1,1.246,1.526c-.14,1.062-.691,1.534-1.624,1.351a13.2,13.2,0,0,0-4.862.018A1.357,1.357,0,0,1,20.124,33.69Z"/><path fill="url(#wLT1YNcV8Rh2J4CmSx~7mW)" d="M20.124,33.69c-.18-1.017.982-1.595,2.036-1.278a5.332,5.332,0,0,1,.833.352,2.4,2.4,0,0,0,2.253-.008,2.943,2.943,0,0,1,1.626-.421,1.282,1.282,0,0,1,1.246,1.526c-.14,1.062-.691,1.534-1.624,1.351a13.2,13.2,0,0,0-4.862.018A1.357,1.357,0,0,1,20.124,33.69Z"/><path fill="url(#wLT1YNcV8Rh2J4CmSx~7mX)" d="M24.009,42.64a5.5,5.5,0,0,1-2.76-.674,1.771,1.771,0,0,1-.945-1.721c.023-.425.067-.85.122-1.272.037-.284.128-.4.445-.193a6.119,6.119,0,0,0,5.712.421,1.585,1.585,0,0,0,.544-.328c.355-.332.5-.215.542.21.018.177.044.353.061.53A2.267,2.267,0,0,1,25.7,42.447,5.943,5.943,0,0,1,24.009,42.64Z"/><path fill="url(#wLT1YNcV8Rh2J4CmSx~7mY)" d="M25.245,15.132q-.561,1.965-1.123,3.93-.564-2.049-1.129-4.1.593-2.526,1.186-5.053Z"/><path fill="url(#wLT1YNcV8Rh2J4CmSx~7mZ)" d="M20.571,12.781a8.955,8.955,0,0,0-.715-2.462,2.015,2.015,0,0,0-.677-.823,1.154,1.154,0,0,0-.926-.069,5.514,5.514,0,0,0-2.075,1.352,15.082,15.082,0,0,0-1.734,2.011,17.71,17.71,0,0,0-3.524,9.978c-.16,3.613.839,7.208.808,10.912a11.624,11.624,0,0,1-4.9,9.463.053.053,0,1,1-.063-.084,11.385,11.385,0,0,0,4.6-9.382c-.049-3.621-1.136-7.194-1.066-10.923a18.476,18.476,0,0,1,3.428-10.473A16.128,16.128,0,0,1,15.522,10.1a6.382,6.382,0,0,1,2.457-1.645A2.182,2.182,0,0,1,19.7,8.6a3.015,3.015,0,0,1,1.1,1.219,9.916,9.916,0,0,1,.886,2.763.568.568,0,0,1-1.114.221l0-.013Z"/><path fill="url(#wLT1YNcV8Rh2J4CmSx~7maa)" d="M28,12.759A8.954,8.954,0,0,1,28.71,10.3a2.031,2.031,0,0,1,.677-.823,1.155,1.155,0,0,1,.926-.069,5.507,5.507,0,0,1,2.075,1.352,15.017,15.017,0,0,1,1.735,2.011,17.717,17.717,0,0,1,3.524,9.978c.159,3.613-.84,7.208-.809,10.912a11.628,11.628,0,0,0,4.9,9.463.052.052,0,0,0,.073-.011.052.052,0,0,0-.01-.073,11.382,11.382,0,0,1-4.6-9.382c.049-3.621,1.135-7.194,1.065-10.923a18.468,18.468,0,0,0-3.428-10.473,15.984,15.984,0,0,0-1.793-2.178,6.382,6.382,0,0,0-2.457-1.645,2.184,2.184,0,0,0-1.725.141,3.03,3.03,0,0,0-1.1,1.219,9.88,9.88,0,0,0-.885,2.763.567.567,0,0,0,1.113.221l0-.013Z"/><path fill="url(#wLT1YNcV8Rh2J4CmSx~7mab)" d="M22.686,14.686c.072.661.218,2.008-.265,2.21-.543.227-1.608-1.11-2.12-2.139-.282-.568-.513-1.051-.3-1.468a1.557,1.557,0,0,1,2.058-.392C22.526,13.216,22.589,13.792,22.686,14.686Z"/><circle cx="21.224" cy="14.487" r="1.308" fill="url(#wLT1YNcV8Rh2J4CmSx~7mi)"/><circle cx="20.903" cy="14.01" r=".203" fill="#fff"/><path fill="url(#wLT1YNcV8Rh2J4CmSx~7mac)" d="M25.664,14.686c-.071.661-.218,2.008.265,2.21.543.227,1.608-1.11,2.12-2.139.282-.568.514-1.051.3-1.468A1.556,1.556,0,0,0,26.3,12.9C25.824,13.216,25.761,13.792,25.664,14.686Z"/><circle cx="27.126" cy="14.487" r="1.308" fill="url(#wLT1YNcV8Rh2J4CmSx~7mad)"/><circle cx="27.448" cy="14.01" r=".203" fill="#fff"/></svg>