<svg xmlns="http://www.w3.org/2000/svg" xmlns:xlink="http://www.w3.org/1999/xlink" viewBox="0 0 48 48"><defs><radialGradient id="pJmFGdTD3SwiZ6R2yBGLfa" cx="43.79" cy="17.26" r=".08" gradientTransform="rotate(-90 43.255 17.795)" gradientUnits="userSpaceOnUse"><stop offset="0" stop-color="#fff"/><stop offset=".28" stop-color="#fcfcfc"/><stop offset=".49" stop-color="#f3f3f3"/><stop offset=".67" stop-color="#e3e3e3"/><stop offset=".84" stop-color="#ccc"/><stop offset="1" stop-color="#b0b0b0"/></radialGradient><radialGradient id="pJmFGdTD3SwiZ6R2yBGLfe" cx="24.08" cy="19.67" r="18.34" gradientTransform="rotate(.34 -1858.712 13.94) scale(1 .43)" gradientUnits="userSpaceOnUse"><stop offset=".58"/><stop offset=".72" stop-color="#393939"/><stop offset="1" stop-color="#b0b0b0"/></radialGradient><radialGradient id="pJmFGdTD3SwiZ6R2yBGLfg" cx="25" cy="11.83" r="8.47" gradientUnits="userSpaceOnUse"><stop offset="0" stop-color="#b57246"/><stop offset="1" stop-color="#b57246" stop-opacity="0"/></radialGradient><radialGradient id="pJmFGdTD3SwiZ6R2yBGLfw" cx="26.77" cy="5.81" r="4.4" gradientTransform="matrix(0 -1.01 1.52 0 6.84 39.58)" xlink:href="#pJmFGdTD3SwiZ6R2yBGLfd"/><radialGradient id="pJmFGdTD3SwiZ6R2yBGLfi" cx="13.92" cy="11.33" r="14.14" gradientUnits="userSpaceOnUse"><stop offset=".01" stop-color="#d8f6dc"/><stop offset=".45" stop-color="#c1e9c5"/><stop offset="1" stop-color="#a8dbae"/></radialGradient><radialGradient id="pJmFGdTD3SwiZ6R2yBGLfj" cx="11.42" cy="8.46" r="14.14" gradientUnits="userSpaceOnUse"><stop offset="0" stop-color="#7fd489" stop-opacity="0"/><stop offset=".33" stop-color="#7fd489" stop-opacity=".01"/><stop offset=".47" stop-color="#7fd489" stop-opacity=".04"/><stop offset=".58" stop-color="#7fd489" stop-opacity=".1"/><stop offset=".67" stop-color="#7fd489" stop-opacity=".19"/><stop offset=".75" stop-color="#7fd489" stop-opacity=".3"/><stop offset=".82" stop-color="#7fd489" stop-opacity=".43"/><stop offset=".88" stop-color="#7fd489" stop-opacity=".59"/><stop offset=".94" stop-color="#7fd489" stop-opacity=".78"/><stop offset="1" stop-color="#7fd489" stop-opacity=".98"/><stop offset="1" stop-color="#7fd489"/></radialGradient><radialGradient id="pJmFGdTD3SwiZ6R2yBGLfd" cx="34.18" cy="16.5" r="4.4" gradientTransform="matrix(1.01 0 0 1.52 -1.61 -9.98)" gradientUnits="userSpaceOnUse"><stop offset=".01" stop-color="#fff" stop-opacity=".5"/><stop offset=".07" stop-color="#fff" stop-opacity=".44"/><stop offset=".27" stop-color="#fff" stop-opacity=".28"/><stop offset=".47" stop-color="#fff" stop-opacity=".16"/><stop offset=".66" stop-color="#fff" stop-opacity=".07"/><stop offset=".84" stop-color="#fff" stop-opacity=".02"/><stop offset="1" stop-color="#fff" stop-opacity="0"/></radialGradient><radialGradient id="pJmFGdTD3SwiZ6R2yBGLfl" cx="32" cy="16.08" r="10.28" gradientUnits="userSpaceOnUse"><stop offset=".01" stop-color="#fcc7e0"/><stop offset=".45" stop-color="#f9aecd"/><stop offset="1" stop-color="#f697bd"/></radialGradient><radialGradient id="pJmFGdTD3SwiZ6R2yBGLfm" cx="24" cy="41.62" r="11.52" gradientTransform="matrix(1 .01 -.01 .38 .21 25.49)" gradientUnits="userSpaceOnUse"><stop offset=".01" stop-color="#666"/><stop offset=".16" stop-color="#b0b0b0"/><stop offset=".34" stop-color="#cacaca"/><stop offset=".65" stop-color="#fff"/><stop offset="1" stop-color="#e3e3e3"/></radialGradient><radialGradient id="pJmFGdTD3SwiZ6R2yBGLfc" cx="24" cy="42.93" r="10.95" gradientTransform="matrix(1 0 0 .3 0 29.97)" gradientUnits="userSpaceOnUse"><stop offset="0" stop-color="#fff" stop-opacity="0"/><stop offset=".87" stop-color="#545454" stop-opacity=".27"/><stop offset="1" stop-opacity=".4"/></radialGradient><radialGradient id="pJmFGdTD3SwiZ6R2yBGLfn" cx="23.95" cy="48.16" r="11.5" gradientTransform="matrix(0 1 -.89 0 66.81 24.21)" gradientUnits="userSpaceOnUse"><stop offset="0" stop-color="#dedede"/><stop offset=".3" stop-color="#dbdbdb"/><stop offset=".51" stop-color="#d2d2d2"/><stop offset=".7" stop-color="#c3c3c3"/><stop offset=".84" stop-color="#b0b0b0"/><stop offset=".92" stop-color="#a8a8a8"/><stop offset=".99" stop-color="#9e9e9e"/></radialGradient><radialGradient id="pJmFGdTD3SwiZ6R2yBGLfu" cx="4.21" cy="17.26" r=".08" gradientTransform="rotate(-90 4.78 16.69)" xlink:href="#pJmFGdTD3SwiZ6R2yBGLfa"/><radialGradient id="pJmFGdTD3SwiZ6R2yBGLff" cx="28.67" cy="7.17" r="12.9" gradientUnits="userSpaceOnUse"><stop offset="0" stop-color="#b57246"/><stop offset="1" stop-color="#6f2f0a"/></radialGradient><radialGradient id="pJmFGdTD3SwiZ6R2yBGLft" cx="18.21" cy="11.54" r="31.37" gradientTransform="matrix(.94 .34 -.22 .61 3.62 -1.68)" xlink:href="#pJmFGdTD3SwiZ6R2yBGLfc"/><radialGradient id="pJmFGdTD3SwiZ6R2yBGLfq" cx="32" cy="16.08" r="10.28" gradientUnits="userSpaceOnUse"><stop offset="0" stop-color="#f57398" stop-opacity="0"/><stop offset=".33" stop-color="#f57398" stop-opacity=".01"/><stop offset=".48" stop-color="#f57398" stop-opacity=".04"/><stop offset=".59" stop-color="#f57398" stop-opacity=".09"/><stop offset=".68" stop-color="#f57398" stop-opacity=".16"/><stop offset=".76" stop-color="#f57398" stop-opacity=".26"/><stop offset=".83" stop-color="#f57398" stop-opacity=".38"/><stop offset=".9" stop-color="#f57398" stop-opacity=".51"/><stop offset=".96" stop-color="#f57398" stop-opacity=".67"/><stop offset="1" stop-color="#f57398" stop-opacity=".8"/></radialGradient><radialGradient id="pJmFGdTD3SwiZ6R2yBGLfr" cx="24" cy="18.01" r="15.72" gradientTransform="rotate(-90 24.02 17.99)" xlink:href="#pJmFGdTD3SwiZ6R2yBGLfa"/><radialGradient id="pJmFGdTD3SwiZ6R2yBGLfb" cx="15.13" cy="12.05" r="32.58" gradientTransform="matrix(.89 .34 -.21 .61 4.68 -.44)" gradientUnits="userSpaceOnUse"><stop offset=".02" stop-color="#fff" stop-opacity="0"/><stop offset=".02" stop-color="#fff" stop-opacity="0"/><stop offset=".1" stop-color="#fff" stop-opacity="0"/><stop offset=".56" stop-color="#fff" stop-opacity="0"/><stop offset=".57" stop-color="#fcfcfc" stop-opacity=".03"/><stop offset=".65" stop-color="#d0d0d0" stop-opacity=".44"/><stop offset=".72" stop-color="#b1b1b1" stop-opacity=".75"/><stop offset=".77" stop-color="#9d9d9d" stop-opacity=".93"/><stop offset=".8" stop-color="#969696"/><stop offset=".83" stop-color="#b0b0b0" stop-opacity=".75"/><stop offset=".89" stop-color="#dadada" stop-opacity=".35"/><stop offset=".93" stop-color="#f5f5f5" stop-opacity=".1"/><stop offset=".95" stop-color="#fff" stop-opacity="0"/></radialGradient><radialGradient id="pJmFGdTD3SwiZ6R2yBGLfs" cx="33.04" cy="20.05" r="32.58" gradientTransform="matrix(.89 .34 -.21 .61 7.35 -3.39)" xlink:href="#pJmFGdTD3SwiZ6R2yBGLfb"/><radialGradient id="pJmFGdTD3SwiZ6R2yBGLfx" cx="38.59" cy="9.32" r="3.55" gradientTransform="matrix(1.01 0 0 1.52 -10.9 -7.99)" gradientUnits="userSpaceOnUse"><stop offset="0" stop-color="#fff" stop-opacity=".5"/><stop offset=".07" stop-color="#fff" stop-opacity=".44"/><stop offset=".27" stop-color="#fff" stop-opacity=".28"/><stop offset=".47" stop-color="#fff" stop-opacity=".16"/><stop offset=".66" stop-color="#fff" stop-opacity=".07"/><stop offset=".84" stop-color="#fff" stop-opacity=".02"/><stop offset="1" stop-color="#fff" stop-opacity="0"/></radialGradient><linearGradient id="pJmFGdTD3SwiZ6R2yBGLfp" x1="37.37" x2="20.78" y1="21.99" y2="21.65" gradientUnits="userSpaceOnUse"><stop offset="0" stop-color="#f57398" stop-opacity=".8"/><stop offset=".04" stop-color="#f57398" stop-opacity=".67"/><stop offset=".1" stop-color="#f57398" stop-opacity=".51"/><stop offset=".17" stop-color="#f57398" stop-opacity=".38"/><stop offset=".24" stop-color="#f57398" stop-opacity=".26"/><stop offset=".32" stop-color="#f57398" stop-opacity=".16"/><stop offset=".41" stop-color="#f57398" stop-opacity=".09"/><stop offset=".52" stop-color="#f57398" stop-opacity=".04"/><stop offset=".67" stop-color="#f57398" stop-opacity=".01"/><stop offset="1" stop-color="#f57398" stop-opacity="0"/></linearGradient><linearGradient id="pJmFGdTD3SwiZ6R2yBGLfo" x1="20.8" x2="25.8" y1="35.5" y2="35.46" gradientUnits="userSpaceOnUse"><stop offset="0" stop-color="#fff" stop-opacity="0"/><stop offset=".51" stop-color="#fff"/><stop offset="1" stop-color="#fff" stop-opacity="0"/></linearGradient><linearGradient id="pJmFGdTD3SwiZ6R2yBGLfv" x1="15.63" x2="16.38" y1="18.31" y2="25.68" gradientUnits="userSpaceOnUse"><stop offset="0" stop-color="#fff" stop-opacity=".5"/><stop offset=".24" stop-color="#fff" stop-opacity=".49"/><stop offset=".41" stop-color="#fff" stop-opacity=".45"/><stop offset=".56" stop-color="#fff" stop-opacity=".39"/><stop offset=".7" stop-color="#fff" stop-opacity=".3"/><stop offset=".83" stop-color="#fff" stop-opacity=".19"/><stop offset=".96" stop-color="#fff" stop-opacity=".05"/><stop offset="1" stop-color="#fff" stop-opacity="0"/></linearGradient><linearGradient id="pJmFGdTD3SwiZ6R2yBGLfk" x1="18.49" x2="18.49" y1="14.19" y2="25.04" gradientUnits="userSpaceOnUse"><stop offset="0" stop-color="#84c78c" stop-opacity="0"/><stop offset=".51" stop-color="#75bf75" stop-opacity=".53"/><stop offset="1" stop-color="#68b861"/></linearGradient><linearGradient id="pJmFGdTD3SwiZ6R2yBGLfh" x1="15.9" x2="34.4" y1="9.36" y2="11.8" gradientUnits="userSpaceOnUse"><stop offset="0" stop-color="#6f2f0a" stop-opacity="0"/><stop offset=".22" stop-color="#6f2f0a" stop-opacity=".22"/><stop offset="1" stop-color="#6f2f0a"/></linearGradient></defs><path fill="url(#pJmFGdTD3SwiZ6R2yBGLfe)" fill-rule="evenodd" d="M24,11.9c-10.33,0-18.7,4.22-18.7,5.41,0,6.78,8.37,12.28,18.7,12.28s18.7-5.5,18.7-12.28C42.7,16.12,34.33,11.9,24,11.9Z"/><path fill="url(#pJmFGdTD3SwiZ6R2yBGLff)" fill-rule="evenodd" d="M35,11.35h0a9.35,9.35,0,0,1-18.7,0,8,8,0,0,1,.07-1.1,8.86,8.86,0,0,1,.75-2.71A9.35,9.35,0,0,1,35,11.35Z"/><path fill="#6f2f0a" d="M26.88,3s-.12-.1-.36-.1a1.09,1.09,0,0,0-.42.1,1.68,1.68,0,0,1-.66.18c-.27,0-.51-.09-.63,0a2.34,2.34,0,0,0-.26.29.91.91,0,0,1-.47.29c-.36.09-.7,0-.93.12s-.41.46-.92.55c-.71-.08-.83.67-1.32,1.17a1.16,1.16,0,0,1-.45.29A3.32,3.32,0,0,1,20,6a.66.66,0,0,0-.47.37,6.29,6.29,0,0,1-.7,1.33,4.69,4.69,0,0,1,.43-1.47,1,1,0,0,1,.66-.58,1,1,0,0,0,.68-.3,9.23,9.23,0,0,0,.53-.78,1.36,1.36,0,0,1,.44-.41A1.33,1.33,0,0,1,22.17,4c.23,0,.41-.35.83-.52a6.83,6.83,0,0,1,1-.11c.25,0,.33-.25.62-.48s.68,0,.85,0c.37,0,.78-.23,1.08-.14S26.91,3,26.88,3Z"/><path fill="#6f2f0a" d="M29.78,4.44c0,.06-.58-.16-1.52-.29-.22,0-.55-.09-.6,0a.89.89,0,0,1-.38.34,1.43,1.43,0,0,1-.53.06.69.69,0,0,0-.71.3,3.53,3.53,0,0,1-.37.42.91.91,0,0,1-.63.24c-.72-.13-1,.52-1.52,1a1.41,1.41,0,0,1-.92.4,1.58,1.58,0,0,0-.7.13,2.36,2.36,0,0,0-.76.74c-.16.22-.25.34-.27.32s0-.16.13-.41a2.14,2.14,0,0,1,.75-.92,1.8,1.8,0,0,1,.81-.22,1,1,0,0,0,.68-.34c.21-.2.4-.48.67-.74a1.42,1.42,0,0,1,.52-.33A1.72,1.72,0,0,1,25,5.1c.29,0,.44-.21.68-.5a1.18,1.18,0,0,1,.48-.37,1.48,1.48,0,0,1,.56-.05,1.16,1.16,0,0,0,.39,0c.1,0,.12-.08.26-.24a.58.58,0,0,1,.53-.13l.38.07A3.17,3.17,0,0,1,29.78,4.44Z"/><path fill="#6f2f0a" d="M31,5.86c0,.08-.53-.06-1.32,0a1.68,1.68,0,0,0-.59.17,4.48,4.48,0,0,0-.6.45c-.58.44-1.33.08-1.69.4-.22.15-.4.4-.67.61a1.66,1.66,0,0,1-.9.32,1.86,1.86,0,0,0-1.22.5c-.57.55-.84,1-.9,1a2.54,2.54,0,0,1,.69-1.18,2.09,2.09,0,0,1,1.37-.68,1.3,1.3,0,0,0,.69-.26c.2-.16.38-.42.69-.64a1.58,1.58,0,0,1,1-.22,1.09,1.09,0,0,0,.71-.15,4,4,0,0,1,.67-.44,1.87,1.87,0,0,1,.72-.15A2.4,2.4,0,0,1,31,5.86Z"/><path fill="#6f2f0a" d="M32.09,8.16a5.38,5.38,0,0,1-1.28,0c-.39,0-.86,0-1.37,0l-.81.08a1.31,1.31,0,0,0-.72.23,5.31,5.31,0,0,1-.68.61,2.15,2.15,0,0,1-.86.25,2.77,2.77,0,0,0-1.27.29c-.64.39-.77.91-.84.88s0-.59.67-1.13A2.8,2.8,0,0,1,26.32,9a1.87,1.87,0,0,0,.7-.22,7.18,7.18,0,0,0,.63-.58,1.67,1.67,0,0,1,.94-.31c.29,0,.57,0,.83-.06a11.07,11.07,0,0,1,1.41,0A3.09,3.09,0,0,1,32.09,8.16Z"/><path fill="#6f2f0a" d="M33.36,9.69c0,.06-.24,0-.56,0-.14,0-.36.05-.58.08a2.51,2.51,0,0,1-.76,0c-1-.12-1.57.56-1.65.47s0-.26.32-.5a1.82,1.82,0,0,1,1.38-.4,3.24,3.24,0,0,0,.7.08,2.6,2.6,0,0,1,.61,0C33.2,9.52,33.38,9.64,33.36,9.69Z"/><path fill="url(#pJmFGdTD3SwiZ6R2yBGLfg)" fill-rule="evenodd" d="M35,11.35v.12a9.35,9.35,0,0,1-18.7-.12,8,8,0,0,1,.07-1.1,8.41,8.41,0,0,1,.42-1.88,5.33,5.33,0,0,1,.3-.75l0-.08a9.34,9.34,0,0,1,17.8,2.61,7.47,7.47,0,0,1,.07,1A1.92,1.92,0,0,1,35,11.35Z"/><path fill="url(#pJmFGdTD3SwiZ6R2yBGLfh)" fill-rule="evenodd" d="M35,11.35v.12a19.66,19.66,0,0,0-10.23,2,3.46,3.46,0,0,0-1.33-1.56,25.52,25.52,0,0,0-4.59-2.36c-.51-.24-1.83-.6-2.06-1.17a5.33,5.33,0,0,1,.3-.75,3.78,3.78,0,0,1,1.17-.4,7.23,7.23,0,0,1,2.93-.09,7.31,7.31,0,0,1,4.24,2.38A14,14,0,0,1,32,9.42a5.51,5.51,0,0,1,1.19.32A5.05,5.05,0,0,1,35,11.11,1.92,1.92,0,0,1,35,11.35Z"/><circle cx="17.95" cy="16.85" r="9.35" fill="url(#pJmFGdTD3SwiZ6R2yBGLfi)"/><path fill="#a8dbae" d="M23.5,11.34s-.36-.28-.84-.83c-.12-.14-.24-.3-.35-.31s-.17,0-.31,0a.83.83,0,0,1-.41-.18c-.22-.18-.35-.4-.52-.52a1.17,1.17,0,0,0-.65-.18,5.36,5.36,0,0,1-1.59-.11c-.49-.16-.85-.39-1.17-.5a2.82,2.82,0,0,0-1.1-.15s.43-.35,1.19-.14c.37.09.77.29,1.2.41a6.15,6.15,0,0,0,1.5.06,1.54,1.54,0,0,1,.87.27,7.21,7.21,0,0,1,.53.55c.15.14.24.11.55.16a1,1,0,0,1,.51.47C23.31,10.92,23.55,11.3,23.5,11.34Z"/><path fill="#a8dbae" d="M22.05,14.68a2.89,2.89,0,0,0-.65-1.3,2.16,2.16,0,0,0-1-.56,3,3,0,0,1-.49-.19c-.33-.27-.41-.51-.7-.58a4.74,4.74,0,0,0-1-.11,1.63,1.63,0,0,1-1.1-.42,2.16,2.16,0,0,0-.7-.58,3.21,3.21,0,0,0-1.55-.18,5.07,5.07,0,0,0-1.07.16c-.23.08-.24.24-.27.24s-.08-.22.19-.39a3.54,3.54,0,0,1,1.12-.32,3.25,3.25,0,0,1,1.74.12,2.44,2.44,0,0,1,.83.64,1.23,1.23,0,0,0,.84.3,4.56,4.56,0,0,1,1.1.14,1.16,1.16,0,0,1,.5.33,2.58,2.58,0,0,0,.3.33c.1.06.25.09.37.15a2.41,2.41,0,0,1,.43.19,2.34,2.34,0,0,1,.64.53C22.29,14,22.09,14.72,22.05,14.68Z"/><path fill="#a8dbae" d="M21.27,16.3a5,5,0,0,0-1.48-1A3.67,3.67,0,0,0,18,14.86a1.84,1.84,0,0,1-.63-.06,2,2,0,0,1-.56-.33c-.29-.25-.58-.21-1-.15a5.5,5.5,0,0,1-2.38-.61,2.75,2.75,0,0,0-1.81,0,3.66,3.66,0,0,0-1.4,1s.18-.8,1.29-1.3a2.94,2.94,0,0,1,2-.13,5.66,5.66,0,0,0,2.22.56,3.43,3.43,0,0,1,.67,0,1.24,1.24,0,0,1,.66.28,1.13,1.13,0,0,0,.94.33,2.41,2.41,0,0,1,1.09.2c.32.14.58.27.84.4C21,15.58,21.34,16.28,21.27,16.3Z"/><path fill="#a8dbae" d="M10.21,20.33s-.13-.16-.14-.51a1.78,1.78,0,0,1,.62-1.3,1.9,1.9,0,0,1,.93-.44,1.66,1.66,0,0,0,.46-.12c.12,0,.16-.18.34-.37a1.53,1.53,0,0,1,1.32-.24,1.82,1.82,0,0,0,1.16-.1,3.4,3.4,0,0,1,2.59-.07c.75.24,1.38.53,1.93.65a5.32,5.32,0,0,1,1.35.38c.31.17.39.36.37.37s-.15-.11-.44-.22a7.7,7.7,0,0,0-1.34-.24,20,20,0,0,1-2-.57,3.08,3.08,0,0,0-2.31.08c-.95.48-2-.21-2.38.23-.09.08-.21.32-.44.43a1.88,1.88,0,0,1-.57.14,1.63,1.63,0,0,0-.79.33,1.72,1.72,0,0,0-.65,1.08C10.2,20.14,10.25,20.32,10.21,20.33Z"/><path fill="#a8dbae" d="M11.58,22.65s-.16-.19.07-.44.73-.27,1-.51a7.76,7.76,0,0,1,.55-.59,3.27,3.27,0,0,1,.82-.53,4.5,4.5,0,0,1,2.17-.35c.79,0,1.5.42,2,.31a5,5,0,0,0,.81-.34,1.47,1.47,0,0,1,.88-.06,5.81,5.81,0,0,1,1.54.46,6.14,6.14,0,0,1-1.59-.16,1.18,1.18,0,0,0-.7.09,4.38,4.38,0,0,1-.87.4,2.41,2.41,0,0,1-1.1-.08,5.6,5.6,0,0,0-1-.18,4.4,4.4,0,0,0-2,.29,3.12,3.12,0,0,0-.75.43c-.22.16-.35.36-.58.55a1.56,1.56,0,0,1-.68.24.9.9,0,0,0-.42.16C11.56,22.48,11.61,22.64,11.58,22.65Z"/><path fill="#a8dbae" d="M17.82,24.86s0-.32.3-.74a2.52,2.52,0,0,1,.6-.66,1.7,1.7,0,0,1,1-.35,6.12,6.12,0,0,0,2.46-.65s-.14.3-.56.57a3.57,3.57,0,0,1-1.84.5,1.87,1.87,0,0,0-1.46.77C18.06,24.65,17.87,24.89,17.82,24.86Z"/><path fill="url(#pJmFGdTD3SwiZ6R2yBGLfj)" fill-rule="evenodd" d="M27.3,16.85a9.35,9.35,0,1,1-1.94-5.7A9.38,9.38,0,0,1,27.3,16.85Z"/><path fill="url(#pJmFGdTD3SwiZ6R2yBGLfk)" fill-rule="evenodd" d="M25.76,22l0,0a9.37,9.37,0,0,0,.6-1.08l0-.09a9.28,9.28,0,0,0,.45-1.16l0-.08a9.25,9.25,0,0,0,.29-1.26h0a9.29,9.29,0,0,0-1.83-7.12,9.38,9.38,0,0,0-6.63,9,4.24,4.24,0,0,0,.11.87l-.93.18a42.37,42.37,0,0,1-8.22.07A9.27,9.27,0,0,0,21.8,25.36l.15-.06a9.34,9.34,0,0,0,1-.56l.16-.1a9.42,9.42,0,0,0,.92-.69l.11-.1A9.45,9.45,0,0,0,25,23h0A9.42,9.42,0,0,0,25.76,22Z"/><circle cx="30.05" cy="19.05" r="9.35" fill="url(#pJmFGdTD3SwiZ6R2yBGLfl)"/><path fill="#f697bd" d="M23.36,21.86s-.27-.1-.49-.54a3.1,3.1,0,0,1,0-2,5.17,5.17,0,0,1,.19-.64,1,1,0,0,1,.57-.56.9.9,0,0,0,.49-.4c.12-.19.19-.45.35-.72a1.56,1.56,0,0,1,.72-.59,2.89,2.89,0,0,0,.7-.43,9.49,9.49,0,0,1,1.42-1.19,19.21,19.21,0,0,1,3.32-1.32,4.67,4.67,0,0,1,1.56-.39l.7.16a2.22,2.22,0,0,0,.6,0,8.7,8.7,0,0,1,1.12-.09,1.64,1.64,0,0,1,.84.27c.43.3.35.67.33.64a.92.92,0,0,0-.42-.5,1.56,1.56,0,0,0-.75-.18,10.72,10.72,0,0,0-1.08.15,2.46,2.46,0,0,1-.69,0l-.67-.13a4.75,4.75,0,0,0-1.4.4,21.36,21.36,0,0,0-3.23,1.32,9.81,9.81,0,0,0-1.38,1.15c-.49.44-1.15.51-1.35.9-.13.2-.21.46-.36.7a1.27,1.27,0,0,1-.66.52.68.68,0,0,0-.42.37,5.37,5.37,0,0,0-.2.59A3.17,3.17,0,0,0,23,21.26,3.72,3.72,0,0,0,23.36,21.86Z"/><path fill="#f697bd" d="M25,24.07s-.21-.18-.21-.64a5.74,5.74,0,0,1,.52-1.75l.45-1.16c.09-.21.16-.42.27-.65a1.2,1.2,0,0,1,.6-.6,2.86,2.86,0,0,0,.67-.27,2.19,2.19,0,0,0,.47-.56,2.43,2.43,0,0,1,.6-.67,3.27,3.27,0,0,1,.83-.39A18.25,18.25,0,0,1,35.06,16c.77,0,1.38,0,1.81.07a2,2,0,0,1,.66.1,22,22,0,0,1-2.45.14,21,21,0,0,0-5.68,1.43,2,2,0,0,0-1.22.9,2.51,2.51,0,0,1-.58.65,2.87,2.87,0,0,1-.75.3c-.37.13-.51.62-.7,1l-.5,1.14A7.05,7.05,0,0,0,25,23.44,2.38,2.38,0,0,0,25,24.07Z"/><path fill="#f697bd" d="M38,20.68a11.72,11.72,0,0,0-1.73-.84,4.94,4.94,0,0,0-1.94-.45.55.55,0,0,0-.38.23,2,2,0,0,1-.2.28.58.58,0,0,1-.44.18c-.29,0-.42-.08-.6,0a1.21,1.21,0,0,0-.49.29,6.37,6.37,0,0,1-1,.91,4.29,4.29,0,0,1-1.25.36,2.89,2.89,0,0,0-1.68,1,3.62,3.62,0,0,0-.71,1.72,2.12,2.12,0,0,1,.47-1.91,3.1,3.1,0,0,1,1.83-1.2A4.23,4.23,0,0,0,31,20.9,6.86,6.86,0,0,0,32,20a1.61,1.61,0,0,1,.67-.39,1.75,1.75,0,0,1,.71,0c.12,0,.15-.05.3-.28A1,1,0,0,1,34.3,19a2.5,2.5,0,0,1,1.2.19c.33.12.64.24.92.37A3.3,3.3,0,0,1,38,20.68Z"/><path fill="#f697bd" d="M22.46,15.22s.18-.65,1.08-1.13c.45-.26,1.07-.26,1.47-.64s.73-1.07,1.53-1.42a3,3,0,0,1,1.12-.12,2.54,2.54,0,0,0,.9-.18,4.41,4.41,0,0,1,1.7-.23,2.46,2.46,0,0,1,1.49.46c0,.07-.58-.17-1.5-.16a4.61,4.61,0,0,0-1.58.31,2.78,2.78,0,0,1-1,.22,2.79,2.79,0,0,0-1,.1c-.58.22-.9.9-1.44,1.33s-1.21.41-1.59.61A4.84,4.84,0,0,0,22.46,15.22Z"/><path fill="#f697bd" d="M29.56,26.21s0-.16.18-.33a3,3,0,0,1,.87-.44,1.4,1.4,0,0,0,.85-.9,1.65,1.65,0,0,1,.59-.73,2.29,2.29,0,0,1,1-.23,1.08,1.08,0,0,0,.69-.23c.12-.12.24-.5.5-.69a3.24,3.24,0,0,1,1.38-.54,4,4,0,0,1,1.3-.2,4.08,4.08,0,0,1-1.21.49,3.43,3.43,0,0,0-1.21.55c-.19.14-.2.35-.44.67A1.42,1.42,0,0,1,33,24a2.07,2.07,0,0,0-.78.17,1.32,1.32,0,0,0-.45.55,2.54,2.54,0,0,1-.46.67,1.64,1.64,0,0,1-.64.34,4.53,4.53,0,0,0-.88.29C29.65,26.12,29.59,26.23,29.56,26.21Z"/><ellipse cx="24" cy="42.93" fill="url(#pJmFGdTD3SwiZ6R2yBGLfm)" rx="9.83" ry="3.07"/><ellipse cx="24" cy="42.93" fill="url(#pJmFGdTD3SwiZ6R2yBGLfc)" rx="9.83" ry="3.07"/><path fill="url(#pJmFGdTD3SwiZ6R2yBGLfn)" fill-rule="evenodd" d="M26.46,28.65H21.54A25.2,25.2,0,0,1,20.37,41.1a.47.47,0,0,0,.17.48c1.43,1,5.48,1,6.91,0a.47.47,0,0,0,.17-.48A25.79,25.79,0,0,1,26.46,28.65Z"/><path fill="url(#pJmFGdTD3SwiZ6R2yBGLfo)" fill-rule="evenodd" d="M26.46,28.65H21.54A25.2,25.2,0,0,1,20.37,41.1a.47.47,0,0,0,.17.48c1.43,1,5.48,1,6.91,0a.47.47,0,0,0,.17-.48A25.79,25.79,0,0,1,26.46,28.65Z"/><path fill="url(#pJmFGdTD3SwiZ6R2yBGLfa)" fill-rule="evenodd" d="M42.7,17.31s0,0,0-.06,0,.08,0,.12S42.7,17.33,42.7,17.31Z"/><path fill="url(#pJmFGdTD3SwiZ6R2yBGLfp)" fill-rule="evenodd" d="M39.4,19a9.28,9.28,0,0,1-.67,3.47,8.84,8.84,0,0,1-4.2,1.81A40.12,40.12,0,0,1,24.1,25.72l-.64,0A9.34,9.34,0,0,1,21,21.23c.35,0,.74.1,1,.12.57,0,1.14.07,1.71.08q1.51,0,3-.06l.39,0A37.75,37.75,0,0,0,34.6,20a16.84,16.84,0,0,0,4.74-2A8.73,8.73,0,0,1,39.4,19Z"/><path fill="url(#pJmFGdTD3SwiZ6R2yBGLfq)" fill-rule="evenodd" d="M39.4,19a9.39,9.39,0,1,1-.06-1A8.73,8.73,0,0,1,39.4,19Z"/><path fill="url(#pJmFGdTD3SwiZ6R2yBGLfr)" fill-rule="evenodd" d="M24,22.9c-10.25,0-18.56-2.42-18.69-5.43C5.44,24.18,13.75,29.59,24,29.59s18.56-5.41,18.69-12.12C42.56,20.48,34.25,22.9,24,22.9Z"/><path fill="url(#pJmFGdTD3SwiZ6R2yBGLfb)" fill-rule="evenodd" d="M24,22.9c-10.25,0-18.56-2.42-18.69-5.43C5.44,24.18,13.75,29.59,24,29.59s18.56-5.41,18.69-12.12C42.56,20.48,34.25,22.9,24,22.9Z"/><path fill="url(#pJmFGdTD3SwiZ6R2yBGLfs)" fill-rule="evenodd" d="M24,22.9c-10.25,0-18.56-2.42-18.69-5.43C5.44,24.18,13.75,29.59,24,29.59s18.56-5.41,18.69-12.12C42.56,20.48,34.25,22.9,24,22.9Z"/><path fill="url(#pJmFGdTD3SwiZ6R2yBGLft)" fill-rule="evenodd" d="M42.69,17.47C42.56,24.18,34.25,29.59,24,29.59a27.61,27.61,0,0,1-3.79-.26,24.65,24.65,0,0,1-3.75-.78C10,26.67,5.41,22.42,5.31,17.47c.08,1.74,2.88,3.28,7.21,4.27a44.1,44.1,0,0,0,5.91.91c1.76.16,3.63.25,5.57.25C34.25,22.9,42.56,20.48,42.69,17.47Z"/><path fill="url(#pJmFGdTD3SwiZ6R2yBGLfu)" fill-rule="evenodd" d="M5.32,17.25s0,0,0,.06,0,0,0,.06S5.32,17.29,5.32,17.25Z"/><path fill="#f15a24" fill-rule="evenodd" d="M6.59,21.81s0,0,0-.06,0,.08,0,.12S6.59,21.83,6.59,21.81Z"/><path fill="url(#pJmFGdTD3SwiZ6R2yBGLfv)" fill-rule="evenodd" d="M20.21,29.33a24.65,24.65,0,0,1-3.75-.78,16.85,16.85,0,0,1-3.2-4.87,18.26,18.26,0,0,1-.74-1.94,44.1,44.1,0,0,0,5.91.91A24.09,24.09,0,0,0,20.21,29.33Z"/><ellipse cx="32.91" cy="15.02" fill="url(#pJmFGdTD3SwiZ6R2yBGLfd)" opacity=".6" rx="4.46" ry="6.69" transform="rotate(-54.4 32.914 15.022)"/><ellipse cx="15.65" cy="12.54" fill="url(#pJmFGdTD3SwiZ6R2yBGLfw)" opacity=".6" rx="6.69" ry="4.46" transform="rotate(-28.18 15.654 12.548)"/><ellipse cx="28.08" cy="6.13" fill="url(#pJmFGdTD3SwiZ6R2yBGLfx)" opacity=".6" rx="3.59" ry="5.39" transform="rotate(-65.37 28.077 6.134)"/></svg>